HIERARCHY
ROOT Hips
{
	OFFSET 0.000000 0.000000 0.000000
	CHANNELS 6 Xposition Yposition Zposition Xrotation Yrotation Zrotation
	JOINT LeftUpLeg_virtual
	{
		OFFSET 0.000000 0.000000 0.000000
		CHANNELS 3 Xrotation Yrotation Zrotation
		JOINT LeftUpLeg
		{
			OFFSET 11.394100 -6.187798 -0.413800
			CHANNELS 3 Xrotation Yrotation Zrotation
			JOINT LeftLeg
			{
				OFFSET 0.430247 -32.302673 3.732800
				CHANNELS 3 Xrotation Yrotation Zrotation
				JOINT LeftFoot
				{
					OFFSET -0.430247 -48.264931 -6.423300
					CHANNELS 3 Xrotation Yrotation Zrotation
					JOINT LeftToeBase
					{
						OFFSET 4.230900 -16.068199 23.438400
						CHANNELS 3 Xrotation Yrotation Zrotation
						JOINT LeftToe_End
						{
							OFFSET 4.510700 0.695400 19.974600
							CHANNELS 3 Xrotation Yrotation Zrotation
							End Site
							{
								OFFSET 0 0 0
							}
						}
					}
				}
			}
		}
	}
	JOINT RightUpLeg_virtual
	{
		OFFSET 0.000000 0.000000 0.000000
		CHANNELS 3 Xrotation Yrotation Zrotation
		JOINT RightUpLeg
		{
			OFFSET -11.333700 -6.187798 -0.413800
			CHANNELS 3 Xrotation Yrotation Zrotation
			JOINT RightLeg
			{
				OFFSET -0.430392 -32.302628 3.733000
				CHANNELS 3 Xrotation Yrotation Zrotation
				JOINT RightFoot
				{
					OFFSET 0.430392 -48.264973 -6.423500
					CHANNELS 3 Xrotation Yrotation Zrotation
					JOINT RightToeBase
					{
						OFFSET -4.230900 -16.068199 23.438400
						CHANNELS 3 Xrotation Yrotation Zrotation
						JOINT RightToe_End
						{
							OFFSET -4.510700 0.695400 19.974600
							CHANNELS 3 Xrotation Yrotation Zrotation
							End Site
							{
								OFFSET 0 0 0
							}
						}
					}
				}
			}
		}
	}
	JOINT Spine_virtual
	{
		OFFSET 0.000000 0.000000 0.000000
		CHANNELS 3 Xrotation Yrotation Zrotation
		JOINT Spine
		{
			OFFSET -0.002400 12.777504 0.315300
			CHANNELS 3 Xrotation Yrotation Zrotation
			JOINT Spine1
			{
				OFFSET -0.002067 5.816869 0.032633
				CHANNELS 3 Xrotation Yrotation Zrotation
				JOINT Spine1_split
				{
					OFFSET -0.002067 5.816869 0.032633
					CHANNELS 3 Xrotation Yrotation Zrotation
					JOINT Spine2
					{
						OFFSET -0.002067 5.816869 0.032633
						CHANNELS 3 Xrotation Yrotation Zrotation
						JOINT Neck_virtual
						{
							OFFSET 0.000000 0.000000 0.000000
							CHANNELS 3 Xrotation Yrotation Zrotation
							JOINT Neck
							{
								OFFSET -0.003700 21.199493 -0.826900
								CHANNELS 3 Xrotation Yrotation Zrotation
								JOINT Head
								{
									OFFSET 0.000000 20.442200 4.834800
									CHANNELS 3 Xrotation Yrotation Zrotation
									JOINT HeadTop_End
									{
										OFFSET 0.000000 34.668396 4.968400
										CHANNELS 3 Xrotation Yrotation Zrotation
										End Site
										{
											OFFSET 0 0 0
										}
									}
								}
							}
						}
						JOINT LeftShoulder_virtual
						{
							OFFSET 0.000000 0.000000 0.000000
							CHANNELS 3 Xrotation Yrotation Zrotation
							JOINT LeftShoulder
							{
								OFFSET 3.288150 8.794197 -1.372250
								CHANNELS 3 Xrotation Yrotation Zrotation
								JOINT LeftShoulder_split
								{
									OFFSET 3.288150 8.794197 -1.372250
									CHANNELS 3 Xrotation Yrotation Zrotation
									JOINT LeftArm
									{
										OFFSET 11.953299 -2.279007 -0.146200
										CHANNELS 3 Xrotation Yrotation Zrotation
										JOINT LeftForeArm
										{
											OFFSET 18.448900 0.000000 0.000000
											CHANNELS 3 Xrotation Yrotation Zrotation
											JOINT LeftHand
											{
												OFFSET 29.527798 0.000000 0.000000
												CHANNELS 3 Xrotation Yrotation Zrotation
												End Site
												{
													OFFSET 0 0 0
												}
											}
										}
									}
								}
							}
						}
						JOINT RightShoulder_virtual
						{
							OFFSET 0.000000 0.000000 0.000000
							CHANNELS 3 Xrotation Yrotation Zrotation
							JOINT RightShoulder
							{
								OFFSET -3.249400 8.794197 -1.372250
								CHANNELS 3 Xrotation Yrotation Zrotation
								JOINT RightShoulder_split
								{
									OFFSET -3.249400 8.794197 -1.372250
									CHANNELS 3 Xrotation Yrotation Zrotation
									JOINT RightArm
									{
										OFFSET -11.953299 -2.279007 -0.146200
										CHANNELS 3 Xrotation Yrotation Zrotation
										JOINT RightForeArm
										{
											OFFSET -18.448900 0.000000 0.000000
											CHANNELS 3 Xrotation Yrotation Zrotation
											JOINT RightHand
											{
												OFFSET -29.527802 0.000000 0.000000
												CHANNELS 3 Xrotation Yrotation Zrotation
												End Site
												{
													OFFSET 0 0 0
												}
											}
										}
									}
								}
							}
						}
					}
				}
			}
		}
	}
}
MOTION
Frames: 9
Frame Time: 0.03333333
0.925305 60.636955 -19.100971 0.000000 0.000000 0.000000 32.734983 -4.124067 2.477409 -129.064320 -16.905698 21.858376 122.477231 7.604628 0.002965 -1.849714 -21.638021 -8.990546 -26.065440 0.349103 -0.333212 0.000000 0.000000 0.000000 32.734983 -4.124067 2.477409 -123.051650 -6.805756 -15.774189 126.170014 12.576531 -1.975543 -13.434175 0.997647 -13.816254 -36.165551 -0.659205 -0.284608 0.000000 0.000000 0.000000 32.734983 -4.124067 2.477409 11.783755 0.851979 -2.255443 23.586993 0.789779 -4.769930 0.000000 0.000000 0.000000 0.000000 0.000000 0.000000 23.586991 0.789779 -4.769936 -29.338685 -1.850909 0.313087 -30.067825 -3.949117 3.336538 0.000000 0.000000 0.000000 23.586991 0.789779 -4.769936 1.031244 -3.894730 -0.100350 0.000000 0.000000 0.000000 -14.880889 -30.286609 -15.640402 -170.229529 -79.136334 -171.803655 0.000000 0.000000 0.000000 23.586991 0.789779 -4.769936 6.339584 30.022250 7.914822 0.000000 0.000000 0.000000 -33.565110 7.668072 20.375911 13.935047 70.606309 -24.882885 0.000000 0.000000 0.000000 
0.473784 57.567688 -19.131290 0.000000 0.000000 0.000000 35.857428 -0.271252 2.169254 -116.665450 -21.475433 27.745968 124.517586 7.249621 0.246770 -16.602887 -17.972685 -24.146443 -29.804077 0.525332 -1.193161 0.000000 0.000000 0.000000 35.857428 -0.271252 2.169254 -134.234336 -2.115811 -13.308252 132.746270 7.997311 -0.763575 -10.132815 -0.171187 -10.293473 -40.777346 -0.185478 -1.536663 0.000000 0.000000 0.000000 35.857428 -0.271252 2.169254 11.083841 0.392237 -2.091978 22.176789 0.436128 -4.312041 0.000000 0.000000 0.000000 0.000000 0.000000 0.000000 22.176805 0.436130 -4.312045 -24.273816 -2.101650 -0.458652 -32.969900 -5.781657 3.191221 0.000000 0.000000 0.000000 22.176805 0.436130 -4.312045 0.640951 -3.294368 -0.953792 0.000000 0.000000 0.000000 -15.835099 -34.689957 -16.373891 -175.419065 -77.914700 -177.240349 0.000000 0.000000 0.000000 22.176805 0.436130 -4.312045 5.833052 29.728009 10.839905 0.000000 0.000000 0.000000 -38.904327 17.802036 21.911295 10.180122 60.700315 -18.967888 0.000000 0.000000 0.000000 
0.150948 54.948753 -19.110630 0.000000 0.000000 0.000000 38.517991 2.691017 1.580520 -111.206702 -24.075413 31.656660 124.672549 6.097075 0.244672 -22.076555 -16.367836 -31.567434 -31.475547 0.137948 -1.640710 0.000000 0.000000 0.000000 38.517991 2.691017 1.580520 -144.583111 0.474818 -10.956325 138.387952 4.279653 -0.314881 -6.924555 -0.894451 -7.825032 -41.656166 0.256757 -2.698143 0.000000 0.000000 0.000000 38.517991 2.691017 1.580520 9.881149 0.272378 -1.636591 19.767513 0.228246 -3.621572 0.000000 0.000000 0.000000 0.000000 0.000000 0.000000 19.767503 0.228246 -3.621571 -19.301397 -2.327292 -1.169202 -35.559754 -7.352562 3.025419 0.000000 0.000000 0.000000 19.767503 0.228246 -3.621571 0.020301 -2.572768 -2.855808 0.000000 0.000000 0.000000 -17.018357 -39.190478 -20.988085 -179.017291 -82.074914 178.026558 0.000000 0.000000 0.000000 19.767503 0.228246 -3.621571 5.824606 28.867798 13.884150 0.000000 0.000000 0.000000 -39.853116 20.536060 22.693078 6.574791 55.607712 -13.152832 0.000000 0.000000 0.000000 
-0.085702 53.034569 -19.152302 0.000000 0.000000 0.000000 40.583901 4.798138 1.032598 -118.100200 -27.238492 29.891029 127.389011 6.242875 0.138508 -20.382531 -19.441056 -32.027918 -31.340989 -0.568535 -1.715162 0.000000 0.000000 0.000000 40.583901 4.798138 1.032598 -152.562520 1.776453 -10.444188 142.299642 2.168524 -0.270480 -5.013667 -1.766543 -6.888218 -39.831324 -0.480516 -2.159663 0.000000 0.000000 0.000000 40.583901 4.798138 1.032598 8.546376 0.278692 -1.104082 17.095390 0.064674 -2.736922 0.000000 0.000000 0.000000 0.000000 0.000000 0.000000 17.095407 0.064675 -2.736923 -15.016690 -2.509809 -1.755171 -37.648320 -8.578239 2.868689 0.000000 0.000000 0.000000 17.095407 0.064675 -2.736923 -0.567128 -1.709441 -5.503913 0.000000 0.000000 0.000000 -18.354334 -41.817212 -27.529784 178.357536 -88.744306 174.470461 0.000000 0.000000 0.000000 17.095407 0.064675 -2.736923 6.177828 28.203603 16.491184 0.000000 0.000000 0.000000 -38.931481 21.004814 21.886976 4.302038 53.106189 -8.182232 0.000000 0.000000 0.000000 
-0.248965 51.851349 -19.157230 0.000000 0.000000 0.000000 41.920003 6.091827 0.621038 -121.771563 -29.278415 29.095598 128.865316 7.359523 0.103884 -19.852075 -22.336612 -33.213704 -31.336368 -0.890426 -1.774855 0.000000 0.000000 0.000000 41.920003 6.091827 0.621038 -157.200847 2.583681 -11.176382 144.586690 1.170313 -0.314775 -4.515753 -2.412658 -6.846204 -37.797133 -0.259235 -1.462144 0.000000 0.000000 0.000000 41.920003 6.091827 0.621038 7.516640 0.339662 -0.703958 15.035792 0.007292 -2.112021 0.000000 0.000000 0.000000 0.000000 0.000000 0.000000 15.035804 0.007296 -2.112024 -12.014360 -2.632162 -2.152850 -39.042348 -9.374604 2.750979 0.000000 0.000000 0.000000 15.035804 0.007296 -2.112024 -1.015676 -1.088655 -7.719864 0.000000 0.000000 0.000000 -19.682850 -42.508690 -33.424135 12.680231 -85.463090 8.660904 0.000000 0.000000 0.000000 15.035804 0.007296 -2.112024 6.610504 27.783777 18.355800 0.000000 0.000000 0.000000 -38.503159 22.500059 21.084063 3.135935 48.801647 -4.266663 0.000000 0.000000 0.000000 
-0.305430 51.473541 -19.150349 0.000000 0.000000 0.000000 42.393307 6.512444 0.442196 -123.032047 -30.001223 29.255814 129.344098 7.600063 0.074562 -19.702884 -23.729891 -33.390155 -31.334155 -0.701091 -1.777557 0.000000 0.000000 0.000000 42.393307 6.512444 0.442196 -156.455633 3.144655 -11.904725 144.671794 1.517923 -0.036874 -6.885567 -2.414235 -7.024565 -35.626902 0.463909 -1.506706 0.000000 0.000000 0.000000 42.393307 6.512444 0.442196 7.147908 0.465217 -0.492508 14.301019 0.134548 -1.811519 0.000000 0.000000 0.000000 0.000000 0.000000 0.000000 14.301018 0.134549 -1.811517 -10.888940 -2.676976 -2.298654 -39.547369 -9.657592 2.704438 0.000000 0.000000 0.000000 14.301018 0.134549 -1.811517 -1.180494 -0.757294 -8.687515 0.000000 0.000000 0.000000 -20.068537 -41.893030 -35.976973 15.277964 -83.419655 11.325297 0.000000 0.000000 0.000000 14.301018 0.134549 -1.811517 6.868136 27.557404 18.918760 0.000000 0.000000 0.000000 -38.383751 22.922362 20.627895 2.112900 47.130877 -2.168519 0.000000 0.000000 0.000000 
-0.305430 51.473541 -19.150349 0.000000 0.000000 0.000000 42.393307 6.512444 0.442196 -123.032047 -30.001223 29.255814 129.344098 7.600063 0.074562 -19.702884 -23.729891 -33.390155 -31.334155 -0.701091 -1.777557 0.000000 0.000000 0.000000 42.393307 6.512444 0.442196 -156.455633 3.144655 -11.904725 144.671794 1.517923 -0.036874 -6.885567 -2.414235 -7.024565 -35.626902 0.463909 -1.506706 0.000000 0.000000 0.000000 42.393307 6.512444 0.442196 7.147908 0.465217 -0.492508 14.301019 0.134548 -1.811519 0.000000 0.000000 0.000000 0.000000 0.000000 0.000000 14.301018 0.134549 -1.811517 -10.888940 -2.676976 -2.298654 -39.547369 -9.657592 2.704438 0.000000 0.000000 0.000000 14.301018 0.134549 -1.811517 -1.180494 -0.757294 -8.687515 0.000000 0.000000 0.000000 -20.068537 -41.893030 -35.976973 15.277964 -83.419655 11.325297 0.000000 0.000000 0.000000 14.301018 0.134549 -1.811517 6.868136 27.557404 18.918760 0.000000 0.000000 0.000000 -38.383751 22.922362 20.627895 2.112900 47.130877 -2.168519 0.000000 0.000000 0.000000 
-0.305430 51.473541 -19.150349 0.000000 0.000000 0.000000 42.393307 6.512444 0.442196 -123.032047 -30.001223 29.255814 129.344098 7.600063 0.074562 -19.702884 -23.729891 -33.390155 -31.334155 -0.701091 -1.777557 0.000000 0.000000 0.000000 42.393307 6.512444 0.442196 -156.455633 3.144655 -11.904725 144.671794 1.517923 -0.036874 -6.885567 -2.414235 -7.024565 -35.626902 0.463909 -1.506706 0.000000 0.000000 0.000000 42.393307 6.512444 0.442196 7.147908 0.465217 -0.492508 14.301019 0.134548 -1.811519 0.000000 0.000000 0.000000 0.000000 0.000000 0.000000 14.301018 0.134549 -1.811517 -10.888940 -2.676976 -2.298654 -39.547369 -9.657592 2.704438 0.000000 0.000000 0.000000 14.301018 0.134549 -1.811517 -1.180494 -0.757294 -8.687515 0.000000 0.000000 0.000000 -20.068537 -41.893030 -35.976973 15.277964 -83.419655 11.325297 0.000000 0.000000 0.000000 14.301018 0.134549 -1.811517 6.868136 27.557404 18.918760 0.000000 0.000000 0.000000 -38.383751 22.922362 20.627895 2.112900 47.130877 -2.168519 0.000000 0.000000 0.000000 
-0.305430 51.473541 -19.150349 0.000000 0.000000 0.000000 42.393307 6.512444 0.442196 -123.032047 -30.001223 29.255814 129.344098 7.600063 0.074562 -19.702884 -23.729891 -33.390155 -31.334155 -0.701091 -1.777557 0.000000 0.000000 0.000000 42.393307 6.512444 0.442196 -156.455633 3.144655 -11.904725 144.671794 1.517923 -0.036874 -6.885567 -2.414235 -7.024565 -35.626902 0.463909 -1.506706 0.000000 0.000000 0.000000 42.393307 6.512444 0.442196 7.147908 0.465217 -0.492508 14.301019 0.134548 -1.811519 0.000000 0.000000 0.000000 0.000000 0.000000 0.000000 14.301018 0.134549 -1.811517 -10.888940 -2.676976 -2.298654 -39.547369 -9.657592 2.704438 0.000000 0.000000 0.000000 14.301018 0.134549 -1.811517 -1.180494 -0.757294 -8.687515 0.000000 0.000000 0.000000 -20.068537 -41.893030 -35.976973 15.277964 -83.419655 11.325297 0.000000 0.000000 0.000000 14.301018 0.134549 -1.811517 6.868136 27.557404 18.918760 0.000000 0.000000 0.000000 -38.383751 22.922362 20.627895 2.112900 47.130877 -2.168519 0.000000 0.000000 0.000000 
